<svg width="124" height="95" viewBox="0 0 124 95" fill="none" xmlns="http://www.w3.org/2000/svg">
<path d="M123.75 94.7528H68.7289V47.2411C68.7289 39.343 70.1239 32.8024 72.9139 27.6193C75.786 22.3539 79.4377 17.9936 83.8689 14.5381C88.3822 11.0827 93.3878 8.32666 98.8858 6.26987C104.466 4.13081 109.964 2.23857 115.38 0.59314L123.627 15.402C119.524 16.9652 115.995 18.5695 113.041 20.2149C110.169 21.778 107.789 23.5057 105.902 25.398C104.097 27.2902 102.743 29.4704 101.84 31.9386C101.019 34.3244 100.609 37.1628 100.609 40.4537H123.75V94.7528ZM55.5583 94.7528H0.414062V47.2411C0.414062 39.343 1.80908 32.8024 4.59911 27.6193C7.47121 22.3539 11.1639 17.9936 15.6772 14.5381C20.1905 11.0827 25.1961 8.32666 30.6941 6.26987C36.2742 4.13081 41.7722 2.23857 47.1882 0.59314L55.3121 15.402C51.2091 16.9652 47.6805 18.5695 44.7264 20.2149C41.8543 21.778 39.4745 23.5057 37.5872 25.398C35.7818 27.2902 34.4279 29.4704 33.5252 31.9386C32.7046 34.3244 32.2943 37.1628 32.2943 40.4537H55.5583V94.7528Z" fill="#F58220"/>
</svg>
