<svg width="223" height="160" viewBox="0 0 223 160" fill="none" xmlns="http://www.w3.org/2000/svg">
<g filter="url(#filter0_d_456_319)">
<path d="M101.946 50.8579C92.1684 50.8579 85.0816 55.4693 80.686 64.692C78.8919 68.8109 77.8603 73.4223 77.5912 78.5261H101.946V135.206H20V81.078C20 49.3805 35.0257 29.2338 65.0772 20.6378C75.3934 17.683 87.6831 16.2056 101.946 16.2056V50.8579ZM203 50.8579C192.684 50.8579 185.597 55.4693 181.74 64.692C179.946 68.8109 178.959 73.4223 178.779 78.5261H203V135.206H121.188V81.078C121.188 49.3805 136.169 29.2338 166.131 20.6378C176.447 17.683 188.737 16.2056 203 16.2056V50.8579Z" fill="white"/>
</g>
<defs>
<filter id="filter0_d_456_319" x="0" y="0.205566" width="223" height="159" filterUnits="userSpaceOnUse" color-interpolation-filters="sRGB">
<feFlood flood-opacity="0" result="BackgroundImageFix"/>
<feColorMatrix in="SourceAlpha" type="matrix" values="0 0 0 0 0 0 0 0 0 0 0 0 0 0 0 0 0 0 127 0" result="hardAlpha"/>
<feOffset dy="4"/>
<feGaussianBlur stdDeviation="10"/>
<feComposite in2="hardAlpha" operator="out"/>
<feColorMatrix type="matrix" values="0 0 0 0 0 0 0 0 0 0 0 0 0 0 0 0 0 0 0.05 0"/>
<feBlend mode="normal" in2="BackgroundImageFix" result="effect1_dropShadow_456_319"/>
<feBlend mode="normal" in="SourceGraphic" in2="effect1_dropShadow_456_319" result="shape"/>
</filter>
</defs>
</svg>
