<svg width="93" height="71" viewBox="0 0 93 71" fill="none" xmlns="http://www.w3.org/2000/svg">
<path d="M93 71H51.512V35.1743C51.512 29.2189 52.5639 24.287 54.6677 20.3788C56.8333 16.4085 59.5868 13.1206 62.9281 10.5151C66.3313 7.90957 70.1058 5.83137 74.2515 4.28047C78.4591 2.66754 82.6048 1.24072 86.6886 0L92.9072 11.1664C89.8134 12.3451 87.1527 13.5548 84.9251 14.7955C82.7595 15.9742 80.9651 17.277 79.5419 18.7038C78.1806 20.1306 77.1597 21.7746 76.479 23.6356C75.8603 25.4347 75.5509 27.5749 75.5509 30.0564H93V71ZM41.5808 71H0V35.1743C0 29.2189 1.0519 24.287 3.15569 20.3788C5.32136 16.4085 8.10579 13.1206 11.509 10.5151C14.9122 7.90957 18.6866 5.83137 22.8323 4.28047C27.0399 2.66754 31.1856 1.24072 35.2695 0L41.3952 11.1664C38.3014 12.3451 35.6407 13.5548 33.4132 14.7955C31.2475 15.9742 29.4531 17.277 28.0299 18.7038C26.6687 20.1306 25.6477 21.7746 24.9671 23.6356C24.3483 25.4347 24.0389 27.5749 24.0389 30.0564H41.5808V71Z" fill="#E3ECFB"/>
</svg>
