<svg width="20" height="17" viewBox="0 0 20 17" fill="none" xmlns="http://www.w3.org/2000/svg">
<path d="M19.002 4.51562C18.7367 4.51562 18.4824 4.62098 18.2948 4.80852C18.1073 4.99605 18.002 5.25041 18.002 5.51562V13.5156C18.002 13.7808 17.8966 14.0352 17.7091 14.2227C17.5215 14.4103 17.2672 14.5156 17.002 14.5156H3.00195C2.73674 14.5156 2.48238 14.4103 2.29485 14.2227C2.10731 14.0352 2.00195 13.7808 2.00195 13.5156V3.92562L7.88195 9.80562C8.44445 10.3674 9.20695 10.683 10.002 10.683C10.797 10.683 11.5595 10.3674 12.122 9.80562L15.712 6.22563C15.9003 6.03732 16.006 5.78193 16.006 5.51562C16.006 5.24932 15.9003 4.99393 15.712 4.80562C15.5236 4.61732 15.2683 4.51153 15.002 4.51153C14.7357 4.51153 14.4803 4.61732 14.292 4.80562L10.712 8.39563C10.619 8.48935 10.5084 8.56375 10.3865 8.61452C10.2647 8.66529 10.134 8.69142 10.002 8.69142C9.86994 8.69142 9.73924 8.66529 9.61738 8.61452C9.49552 8.56375 9.38492 8.48935 9.29195 8.39563L3.41195 2.51562H11.002C11.2672 2.51562 11.5215 2.41027 11.7091 2.22273C11.8966 2.0352 12.002 1.78084 12.002 1.51562C12.002 1.25041 11.8966 0.996055 11.7091 0.808518C11.5215 0.620982 11.2672 0.515625 11.002 0.515625H3.00195C2.2063 0.515625 1.44324 0.831696 0.880633 1.3943C0.318024 1.95691 0.00195313 2.71998 0.00195312 3.51562V13.5156C0.00195313 14.3113 0.318024 15.0743 0.880633 15.6369C1.44324 16.1996 2.2063 16.5156 3.00195 16.5156H17.002C17.7976 16.5156 18.5607 16.1996 19.1233 15.6369C19.6859 15.0743 20.002 14.3113 20.002 13.5156V5.51562C20.002 5.25041 19.8966 4.99605 19.7091 4.80852C19.5215 4.62098 19.2672 4.51562 19.002 4.51562ZM15.002 2.51562H19.002C19.2672 2.51562 19.5215 2.41027 19.7091 2.22273C19.8966 2.0352 20.002 1.78084 20.002 1.51562C20.002 1.25041 19.8966 0.996055 19.7091 0.808518C19.5215 0.620982 19.2672 0.515625 19.002 0.515625H15.002C14.7367 0.515625 14.4824 0.620982 14.2948 0.808518C14.1073 0.996055 14.002 1.25041 14.002 1.51562C14.002 1.78084 14.1073 2.0352 14.2948 2.22273C14.4824 2.41027 14.7367 2.51562 15.002 2.51562Z" fill="white" fill-opacity="0.5"/>
</svg>
