<svg width="69" height="65" viewBox="0 0 69 65" fill="none" xmlns="http://www.w3.org/2000/svg">
<path d="M49.0202 28.1236C49.0202 30.1032 49.1917 32.488 48.9578 34.8416C48.802 36.5094 47.3524 36.8367 45.8405 36.8367C35.4284 36.8212 25.0164 36.8211 14.6199 36.8211C12.0481 36.8211 9.47628 36.8367 6.90444 36.8211C4.64434 36.8056 3.78706 35.9327 3.78706 33.6414C3.77148 24.3672 3.77148 15.093 3.77148 5.8188C3.77148 3.38725 4.5664 2.57673 6.96678 2.56115C19.8883 2.54556 32.8098 2.54559 45.7314 2.54559C48.3188 2.54559 49.0826 3.29373 49.0826 5.8188C49.0982 8.87383 49.0981 11.9133 49.0981 14.9683C49.0981 16.7452 47.4615 17.8363 45.8249 17.0881C43.9233 16.2153 42.0996 15.1865 40.2292 14.2513C37.2989 12.8017 34.3218 13.659 33.0281 16.3088C31.7499 18.9118 32.8098 21.7174 35.6622 23.1826C38.2652 24.5387 40.8059 26.0194 43.518 27.1105C45.1391 27.7963 47.0251 27.7963 49.0202 28.1236Z" fill="#424242"/>
<path d="M57.8893 43.1807C54.164 42.6508 54.164 42.6508 54.164 39.0502C54.164 34.2027 54.1484 29.3707 54.1328 24.5232C54.1328 24.4141 54.086 24.3051 53.9769 23.8842C51.8727 24.3206 49.7685 24.8662 47.6331 25.1467C46.5887 25.287 45.3574 25.1935 44.4066 24.7882C41.8971 23.6971 39.4811 22.3566 37.034 21.1097C35.2103 20.1745 34.5869 18.7873 35.3506 17.3845C36.1144 15.966 37.5328 15.7011 39.3876 16.6363C41.3048 17.6027 43.1752 18.6782 45.1548 19.5198C45.9341 19.8472 46.9784 19.8783 47.8045 19.6601C49.5815 19.1613 51.3272 18.5067 53.0106 17.743C54.3354 17.1351 55.6136 16.3713 56.7826 15.4985C59.0583 13.7995 61.4898 13.2228 64.1864 14.2203C66.8829 15.2179 68.8001 17.2286 68.878 20.0186C69.0962 27.5783 68.956 35.1535 68.956 42.8534C67.8337 42.9158 66.7894 42.9937 65.5424 43.0717C65.5424 50.226 65.5424 57.3181 65.5424 64.5348C62.9394 64.5348 60.5234 64.5348 57.8893 64.5348C57.8893 57.4272 57.8893 50.3351 57.8893 43.1807Z" fill="#2773B3"/>
<path d="M45.0443 64.6906C43.0647 64.6906 41.0852 64.7841 39.1213 64.6282C38.5602 64.5814 37.7496 63.9424 37.5626 63.3968C36.4715 60.0145 37.7808 56.2113 40.6176 54.1382C43.205 52.2366 46.7433 52.1743 49.3463 53.9824C52.2143 55.9619 53.5859 59.7495 52.7598 63.1786C52.4948 64.2697 51.9805 64.7685 50.7803 64.7061C48.8787 64.6126 46.9615 64.6906 45.0443 64.6906Z" fill="#424242"/>
<path d="M26.4483 64.6907C24.4843 64.6907 22.5048 64.7842 20.5564 64.6284C19.9953 64.5816 19.1692 63.9581 18.9822 63.4282C17.8599 60.0302 19.2315 56.1491 22.1463 54.0761C24.7961 52.1745 28.2564 52.19 30.9997 54.1384C33.7429 56.0867 35.099 60.0926 34.1482 63.397C33.8832 64.3322 33.3844 64.7375 32.3557 64.7063C30.3918 64.6283 28.4122 64.6751 26.4483 64.6907Z" fill="#424242"/>
<path d="M7.83966 64.6904C5.92247 64.6904 4.00527 64.6436 2.10367 64.706C1.07494 64.7371 0.591752 64.3163 0.311188 63.3811C-0.670786 60.0143 0.732025 56.0397 3.66236 53.9978C6.24978 52.1897 9.8036 52.2365 12.391 54.1381C15.259 56.2423 16.6306 60.2949 15.446 63.5525C15.259 64.0513 14.4797 64.5969 13.9341 64.628C11.9078 64.7527 9.86595 64.6904 7.83966 64.6904Z" fill="#424242"/>
<path d="M61.1449 12.1628C57.9964 12.0848 55.6895 9.41951 55.7986 6.00598C55.9077 2.82626 58.3704 0.347933 61.3631 0.394694C64.4649 0.441455 66.9432 3.18475 66.8341 6.48917C66.725 9.73124 64.2155 12.2407 61.1449 12.1628Z" fill="#2773B3"/>
</svg>
