<svg width="73" height="68" viewBox="0 0 73 68" fill="none" xmlns="http://www.w3.org/2000/svg">
<circle cx="36.0938" cy="33.0233" r="32.9923" fill="#2673B2"/>
<g filter="url(#filter0_d_724_807)">
<path d="M34.4149 28.6548C32.6958 28.6548 31.4499 29.4655 30.6771 31.0869C30.3617 31.8111 30.1803 32.6218 30.133 33.5191H34.4149V43.484H20.0078V33.9678C20.0078 28.395 22.6495 24.853 27.9329 23.3417C29.7466 22.8222 31.9072 22.5625 34.4149 22.5625V28.6548ZM52.1812 28.6548C50.3675 28.6548 49.1216 29.4655 48.4434 31.0869C48.128 31.8111 47.9545 32.6218 47.923 33.5191H52.1812V43.484H37.7978V33.9678C37.7978 28.395 40.4316 24.853 45.6992 23.3417C47.5129 22.8222 49.6736 22.5625 52.1812 22.5625V28.6548Z" fill="white"/>
</g>
<defs>
<filter id="filter0_d_724_807" x="0.0078125" y="6.5625" width="72.1738" height="60.9215" filterUnits="userSpaceOnUse" color-interpolation-filters="sRGB">
<feFlood flood-opacity="0" result="BackgroundImageFix"/>
<feColorMatrix in="SourceAlpha" type="matrix" values="0 0 0 0 0 0 0 0 0 0 0 0 0 0 0 0 0 0 127 0" result="hardAlpha"/>
<feOffset dy="4"/>
<feGaussianBlur stdDeviation="10"/>
<feComposite in2="hardAlpha" operator="out"/>
<feColorMatrix type="matrix" values="0 0 0 0 0 0 0 0 0 0 0 0 0 0 0 0 0 0 0.05 0"/>
<feBlend mode="normal" in2="BackgroundImageFix" result="effect1_dropShadow_724_807"/>
<feBlend mode="normal" in="SourceGraphic" in2="effect1_dropShadow_724_807" result="shape"/>
</filter>
</defs>
</svg>
