<svg width="64" height="64" viewBox="0 0 64 64" fill="none" xmlns="http://www.w3.org/2000/svg">
<path d="M62.005 40.4404V47.0942C62.005 55.3289 55.3338 62.0001 47.0991 62.0001H40.4453" stroke="#424242" stroke-width="4" stroke-miterlimit="10"/>
<path d="M2 40.4404V47.0942C2 55.3289 8.67696 62.0001 16.9117 62.0001H23.5655" stroke="#424242" stroke-width="4" stroke-miterlimit="10"/>
<path d="M2 23.5597V16.9059C2 8.67117 8.67696 2 16.9117 2H23.5655" stroke="#424242" stroke-width="4" stroke-miterlimit="10"/>
<path d="M40.4453 2H47.0991C55.3338 2 62.005 8.67117 62.005 16.9059V23.5597" stroke="#424242" stroke-width="4" stroke-miterlimit="10"/>
<path d="M58.4492 32.0722C53.4342 41.7084 43.8792 48.2116 32.9053 48.2116C21.9373 48.2116 12.3822 41.7026 7.37305 32.0722C12.3822 22.4361 21.9373 15.9329 32.9053 15.9329C43.8792 15.9271 53.4342 22.4361 58.4492 32.0722Z" stroke="#316D9E" stroke-width="4" stroke-miterlimit="10"/>
<path d="M32.9109 42.7508C38.8085 42.7508 43.5894 37.9699 43.5894 32.0723C43.5894 26.1747 38.8085 21.3938 32.9109 21.3938C27.0134 21.3938 22.2324 26.1747 22.2324 32.0723C22.2324 37.9699 27.0134 42.7508 32.9109 42.7508Z" stroke="#316D9E" stroke-width="4" stroke-miterlimit="10"/>
<path d="M38.0295 32.0667C38.0295 34.8927 35.742 37.1859 32.9161 37.1859C30.0901 37.1859 27.7969 34.8927 27.7969 32.0667C27.7969 31.9451 27.8027 31.8293 27.8142 31.7135C28.098 31.7772 28.3934 31.8119 28.6945 31.8119C30.8835 31.8119 32.6613 30.0399 32.6613 27.8451C32.6613 27.544 32.6265 27.2486 32.5628 26.9649C32.6786 26.9533 32.8002 26.9475 32.9161 26.9475C35.742 26.9533 38.0295 29.2407 38.0295 32.0667Z" fill="#424242"/>
</svg>
