<svg width="24" height="25" viewBox="0 0 24 25" fill="none" xmlns="http://www.w3.org/2000/svg">
<g opacity="0.5">
<path d="M19.4097 13.5156C19.1897 13.5156 18.9597 13.4456 18.7397 13.3956C18.2945 13.2961 17.8568 13.1658 17.4297 13.0056C16.9658 12.8369 16.4558 12.8456 15.998 13.0302C15.5402 13.2148 15.1668 13.5623 14.9497 14.0056L14.7297 14.4656C13.7585 13.9148 12.8613 13.2428 12.0597 12.4656C11.2825 11.664 10.6105 10.7668 10.0597 9.79562L10.5197 9.58562C10.963 9.36854 11.3105 8.99516 11.4951 8.53732C11.6797 8.07948 11.6885 7.56954 11.5197 7.10563C11.3609 6.67466 11.2306 6.2337 11.1297 5.78562C11.0797 5.56562 11.0397 5.33562 11.0097 5.11562C10.8882 4.41124 10.5193 3.77337 9.96931 3.31686C9.4193 2.86036 8.72438 2.61523 8.00968 2.62562H4.99968C4.57693 2.62507 4.15883 2.71387 3.7728 2.88621C3.38677 3.05854 3.04152 3.31052 2.75968 3.62562C2.472 3.94928 2.2578 4.33138 2.13179 4.74566C2.00577 5.15995 1.97094 5.5966 2.02968 6.02563C2.57327 10.1878 4.47489 14.0543 7.43968 17.0256C10.411 19.9904 14.2775 21.892 18.4397 22.4356C18.5695 22.4455 18.6999 22.4455 18.8297 22.4356C19.5671 22.4367 20.2791 22.1662 20.8297 21.6756C21.1448 21.3938 21.3968 21.0485 21.5691 20.6625C21.7414 20.2765 21.8302 19.8584 21.8297 19.4356V16.4356C21.8243 15.7447 21.5805 15.0767 21.1396 14.5447C20.6987 14.0127 20.0876 13.6492 19.4097 13.5156ZM19.8997 19.5156C19.8994 19.6552 19.8698 19.7931 19.813 19.9205C19.7562 20.048 19.6733 20.1621 19.5697 20.2556C19.4601 20.3555 19.3297 20.4297 19.1878 20.4729C19.046 20.5162 18.8963 20.5273 18.7497 20.5056C15.018 20.0183 11.5499 18.3176 8.87968 15.6656C6.20716 12.9931 4.49171 9.51299 3.99968 5.76562C3.97796 5.61896 3.98912 5.4693 4.03236 5.32748C4.0756 5.18566 4.14983 5.05522 4.24968 4.94562C4.3443 4.84078 4.46006 4.75716 4.58933 4.70028C4.7186 4.6434 4.85846 4.61455 4.99968 4.61562H7.99968C8.23085 4.60998 8.45682 4.68461 8.63915 4.82682C8.82147 4.96904 8.94888 5.17004 8.99968 5.39563C8.99968 5.66563 9.08968 5.94562 9.14968 6.21562C9.26526 6.73949 9.419 7.2542 9.60968 7.75562L8.20968 8.41563C7.96905 8.52609 7.78204 8.72748 7.68968 8.97563C7.58967 9.21909 7.58967 9.49216 7.68968 9.73563C9.12888 12.8184 11.6069 15.2964 14.6897 16.7356C14.9331 16.8356 15.2062 16.8356 15.4497 16.7356C15.6978 16.6433 15.8992 16.4563 16.0097 16.2156L16.6397 14.8156C17.1556 15.0037 17.6834 15.1574 18.2197 15.2756C18.4797 15.3356 18.7597 15.3856 19.0297 15.4256C19.2553 15.4764 19.4563 15.6038 19.5985 15.7862C19.7407 15.9685 19.8153 16.1945 19.8097 16.4256L19.8997 19.5156ZM13.9997 2.51562C13.7697 2.51562 13.5297 2.51562 13.2997 2.51562C13.0345 2.53817 12.7891 2.66515 12.6175 2.86862C12.4459 3.0721 12.3621 3.33541 12.3847 3.60063C12.4072 3.86584 12.5342 4.11124 12.7377 4.28284C12.9412 4.45443 13.2045 4.53817 13.4697 4.51562H13.9997C15.591 4.51562 17.1171 5.14777 18.2423 6.27298C19.3675 7.3982 19.9997 8.92433 19.9997 10.5156C19.9997 10.6956 19.9997 10.8656 19.9997 11.0456C19.9775 11.3094 20.0609 11.5713 20.2314 11.7737C20.402 11.9762 20.6459 12.1027 20.9097 12.1256H20.9897C21.24 12.1266 21.4816 12.0337 21.6668 11.8652C21.8519 11.6968 21.9672 11.4649 21.9897 11.2156C21.9897 10.9856 21.9897 10.7456 21.9897 10.5156C21.9897 8.39562 21.1482 6.36231 19.6501 4.8623C18.1519 3.3623 16.1197 2.51828 13.9997 2.51562ZM15.9997 10.5156C15.9997 10.7808 16.105 11.0352 16.2926 11.2227C16.4801 11.4103 16.7345 11.5156 16.9997 11.5156C17.2649 11.5156 17.5193 11.4103 17.7068 11.2227C17.8943 11.0352 17.9997 10.7808 17.9997 10.5156C17.9997 9.45476 17.5783 8.43734 16.8281 7.6872C16.078 6.93705 15.0605 6.51562 13.9997 6.51562C13.7345 6.51562 13.4801 6.62098 13.2926 6.80852C13.105 6.99605 12.9997 7.25041 12.9997 7.51562C12.9997 7.78084 13.105 8.0352 13.2926 8.22273C13.4801 8.41027 13.7345 8.51562 13.9997 8.51562C14.5301 8.51562 15.0388 8.72634 15.4139 9.10141C15.789 9.47648 15.9997 9.98519 15.9997 10.5156Z" fill="white"/>
</g>
</svg>
