<svg width="75" height="57" viewBox="0 0 75 57" fill="none" xmlns="http://www.w3.org/2000/svg">
<path d="M49.068 56.7004C45.5492 56.7004 42.5928 56.7647 39.6365 56.6522C39.0099 56.6361 38.319 56.1059 37.8209 55.6399C36.889 54.7723 36.0696 53.7761 34.8806 52.4747C34.7038 54.0975 34.5753 55.2865 34.4307 56.5879C22.9748 56.5879 11.5349 56.5879 0.111065 56.5879C0.111065 52.2176 -0.194211 47.9116 0.20747 43.6538C0.512748 40.4243 3.72619 38.0624 7.08425 38.0303C15.9694 37.9499 24.8385 37.9821 33.7237 38.0303C35.7964 38.0463 37.7566 38.8336 38.8813 40.5367C42.3036 45.7265 45.5171 51.0286 49.068 56.7004Z" fill="#2773B3"/>
<path d="M9.07422 22.7987C9.25096 19.1514 10.3435 15.9541 12.834 13.319C17.2524 8.64347 24.4024 8.85237 28.4192 13.8975C32.0022 18.3963 32.5163 23.4254 30.1384 28.6472C28.1782 32.9532 24.1132 35.5079 19.9196 35.283C15.5975 35.058 11.5968 31.9249 10.1347 27.4582C9.6205 25.9479 9.41163 24.3412 9.07422 22.7987Z" fill="#2773B3"/>
<path d="M25.4164 7.93644C24.3721 7.16521 22.5404 8.04891 22.4761 5.97623C22.3958 3.55008 23.7133 1.49348 25.786 1.01146C26.6215 0.818653 27.5052 0.802578 28.3568 0.802578C39.5074 0.786511 50.6741 0.786511 61.8248 0.802578C66.2112 0.802578 67.6894 2.31294 67.6894 6.71536C67.7054 14.1706 67.7054 21.6418 67.6894 29.097C67.6894 33.0014 66.0666 34.6241 62.1944 34.6241C54.3696 34.6402 46.5288 34.6081 38.704 34.6402C36.6314 34.6563 35.3299 33.5637 33.8517 31.6678C34.9122 31.6678 35.5549 31.6678 36.1815 31.6678C44.7453 31.6678 53.3252 31.6678 61.8891 31.6678C64.3474 31.6678 64.6366 31.3786 64.6526 28.8881C64.6687 21.4972 64.6687 14.0902 64.6526 6.69928C64.6526 3.99998 64.4438 3.80719 61.6481 3.80719C50.6742 3.80719 39.7002 3.80719 28.7263 3.80719C25.6414 3.80719 25.6414 3.82325 25.5289 6.85996C25.5289 7.1331 25.4807 7.42229 25.4164 7.93644Z" fill="#424242"/>
<path d="M40.6484 37.4518C41.5803 37.4518 42.3516 37.4518 43.1389 37.4518C49.7907 37.4518 56.4586 37.4197 63.1104 37.5C64.0584 37.5161 65.151 37.9499 65.8901 38.5444C68.8946 40.9706 71.7867 43.5413 75.0002 46.3209C74.229 46.3852 73.8434 46.4655 73.4577 46.4655C64.9582 46.4655 56.4425 46.4495 47.943 46.4977C46.7379 46.4977 46.047 46.1603 45.4365 45.1159C43.9583 42.6094 42.3837 40.1993 40.6484 37.4518Z" fill="#424242"/>
<path d="M34.2852 15.2309C34.2852 12.371 34.2852 9.80023 34.2852 7.117C36.8559 7.117 39.3463 7.117 42.0296 7.117C42.0296 9.55923 42.0778 11.889 41.9814 14.2027C41.9653 14.5561 41.3869 15.1667 41.0334 15.1827C38.8483 15.2631 36.647 15.2309 34.2852 15.2309Z" fill="#424242"/>
<path d="M42.015 27.249C39.2514 27.249 36.8253 27.249 34.3027 27.249C34.3027 24.5658 34.3027 21.9951 34.3027 19.1672C36.6164 19.1672 38.9301 19.1351 41.2438 19.1993C41.5169 19.1993 41.9829 19.7135 41.9829 20.0027C42.0311 22.3646 42.015 24.7586 42.015 27.249Z" fill="#424242"/>
<path d="M54.755 21.3846C53.2447 23.1359 51.7504 24.8872 50.0634 26.8635C48.9065 25.787 47.814 24.7587 46.625 23.65C48.4245 21.7862 48.762 24.4373 50.0473 24.4052C51.6862 23.7143 52.0718 20.8544 54.2891 20.6133C54.4337 20.8704 54.5944 21.1275 54.755 21.3846Z" fill="#424242"/>
<path d="M46.6074 11.5193C48.407 9.62341 48.8086 12.4191 50.2065 12.1942C51.0259 11.2302 51.9739 10.0412 53.0504 8.96466C53.3557 8.65938 54.0305 8.70756 54.5286 8.59509C54.6089 8.80397 54.6892 8.99678 54.7696 9.20566C53.2753 10.957 51.765 12.7083 50.094 14.6685C48.9372 13.6241 47.8446 12.628 46.6074 11.5193Z" fill="#424242"/>
</svg>
