<svg width="89" height="58" viewBox="0 0 89 58" fill="none" xmlns="http://www.w3.org/2000/svg">
<path d="M4.5293 35.9166C13.6883 35.9166 22.5052 35.9011 31.3377 35.9477C31.742 35.9477 32.3795 36.3676 32.5039 36.7252C34.7276 43.5828 36.8891 50.456 39.0505 57.3291C39.0661 57.3758 39.0194 57.438 38.9572 57.6557C36.9202 57.6557 34.852 57.6557 32.7683 57.6557C26.2061 57.6557 19.644 57.6868 13.0663 57.609C12.4443 57.609 11.4491 57.1736 11.2936 56.7226C9.02329 49.9117 6.83071 43.0541 4.5293 35.9166Z" fill="#424242"/>
<path d="M39.6412 50.9536C43.9641 50.3472 48.1315 49.7718 52.7188 49.1342C51.1327 47.1749 49.7487 45.4955 48.1626 43.5362C48.1471 46.9883 48.1471 46.9884 45.1459 47.8436C43.311 48.3568 41.4761 48.8543 39.6256 49.3675C39.5168 49.3986 39.3924 49.3519 39.0969 49.3364C37.4642 44.3137 35.8003 39.2288 34.0742 33.9263C35.8936 32.0291 37.5574 29.37 39.9522 28.126C41.7404 27.193 44.5394 27.8306 46.7787 28.2816C47.9605 28.5304 49.1267 29.7277 49.9353 30.7695C54.5382 36.7097 59.0166 42.7431 63.5417 48.7455C64.9723 50.6426 65.2366 52.6952 64.1637 54.7945C63.1063 56.8315 61.3024 57.7023 59.001 57.6868C53.7451 57.6557 48.5047 57.6401 43.2488 57.7023C42.0514 57.7179 41.5538 57.2981 41.2739 56.2096C40.823 54.4991 40.2321 52.8196 39.6412 50.9536Z" fill="#2773B3"/>
<path d="M76.0148 49.1186C74.4287 47.1748 73.0914 45.5421 71.5208 43.5983C71.5208 44.8734 71.5208 45.7753 71.5208 46.9105C70.4634 47.2371 69.3593 47.6413 68.2086 47.8746C67.8821 47.9368 67.3223 47.6103 67.089 47.2993C63.808 42.9919 60.558 38.6379 57.1836 34.1439C59.2051 32.0602 60.9156 29.4322 63.3259 28.0482C65.6428 26.7109 68.6751 27.1619 71.1165 28.7636C72.0495 29.37 72.8736 30.2097 73.5578 31.0961C77.9274 36.8341 82.2348 42.6187 86.6044 48.3567C88.1127 50.3315 88.6726 52.3997 87.5685 54.6856C86.4489 56.987 84.4274 57.7489 81.9549 57.7178C77.5387 57.6556 73.138 57.7023 68.7218 57.7023C68.2086 57.7023 67.6955 57.6557 67.3845 57.6401C67.8665 55.2143 68.333 52.8662 68.8462 50.2227C70.8677 49.8806 73.2624 49.5229 76.0148 49.1186Z" fill="#2773B3"/>
<path d="M32.3334 25.5602C25.7713 25.4358 20.6397 19.76 20.8108 12.7935C20.9818 5.93593 26.3311 0.586696 32.8777 0.742197C39.191 0.882148 44.3847 6.65129 44.2292 13.3378C44.0582 20.2887 38.8178 25.6846 32.3334 25.5602Z" fill="#2773B3"/>
<path d="M54.5082 25.56C52.3311 25.5444 49.4388 24.176 47.2463 21.5014C46.7953 20.9572 46.6087 19.8375 46.8264 19.1844C48.1948 15.188 48.3192 11.2228 46.7798 7.30418C46.3288 6.13792 46.5932 5.407 47.3396 4.61395C50.4651 1.31732 54.2438 -0.0510548 58.6756 1.1463C63.3717 2.42141 66.1707 5.70246 67.1815 10.3519C68.9076 18.2825 63.3717 25.5755 54.5082 25.56Z" fill="#2773B3"/>
<path d="M13.1289 33.3973C15.4925 28.7012 19.0379 26.8196 24.0606 27.5504C24.3872 27.5971 24.7759 27.7215 25.0092 27.9392C26.813 29.5564 28.5857 31.2203 30.3584 32.8531C30.234 33.0397 30.1096 33.2107 29.9852 33.3973C24.4183 33.3973 18.8513 33.3973 13.1289 33.3973Z" fill="#2773B3"/>
<path d="M9.03806 57.64C7.4053 57.64 6.09909 57.7488 4.80843 57.6244C1.13861 57.2823 -1.1628 53.1615 0.609908 49.896C1.66731 47.9522 3.17566 46.2573 4.69957 44.1581C6.20793 48.8076 7.57635 53.0683 9.03806 57.64Z" fill="#2773B3"/>
</svg>
